<svg width="54" height="51" viewBox="0 0 54 51" fill="none" xmlns="http://www.w3.org/2000/svg">
<g clip-path="url(#clip0_94006_140)">
<path d="M36.5002 13.9993H33.3335C33.3335 10.5002 30.4993 7.66602 27.0002 7.66602C23.501 7.66602 20.6668 10.5002 20.6668 13.9993H17.5002C15.7585 13.9993 14.3335 15.4243 14.3335 17.166V36.166C14.3335 37.9077 15.7585 39.3327 17.5002 39.3327H36.5002C38.2418 39.3327 39.6668 37.9077 39.6668 36.166V17.166C39.6668 15.4243 38.2418 13.9993 36.5002 13.9993ZM27.0002 10.8327C28.7418 10.8327 30.1668 12.2577 30.1668 13.9993H23.8335C23.8335 12.2577 25.2585 10.8327 27.0002 10.8327ZM36.5002 36.166H17.5002V17.166H20.6668V20.3327C20.6668 21.2035 21.3793 21.916 22.2502 21.916C23.121 21.916 23.8335 21.2035 23.8335 20.3327V17.166H30.1668V20.3327C30.1668 21.2035 30.8793 21.916 31.7502 21.916C32.621 21.916 33.3335 21.2035 33.3335 20.3327V17.166H36.5002V36.166Z" fill="#002F52"/>
</g>
<defs>
<clipPath id="clip0_94006_140">
<rect width="38" height="38" fill="white" transform="translate(8 4.5)"/>
</clipPath>
</defs>
</svg>
